HIERARCHY
ROOT Pelvis
{
	OFFSET 0.000000 0.941512 0.000000
	CHANNELS 6 Xposition Yposition Zposition Zrotation Yrotation Xrotation 
	JOINT Pelvis_L_Hip
	{
		OFFSET 0.000000 0.000000 0.000000
		CHANNELS 3 Zrotation Yrotation Xrotation
		JOINT L_Hip
		{
			OFFSET 0.062321 -0.080322 -0.016990
			CHANNELS 3 Zrotation Yrotation Xrotation
			JOINT L_Knee
			{
				OFFSET 0.093051 -0.381305 -0.029784
				CHANNELS 3 Zrotation Yrotation Xrotation
				JOINT L_Ankle
				{
					OFFSET -0.010371 -0.431000 -0.033614
					CHANNELS 3 Zrotation Yrotation Xrotation
					End Site #name: L_Foot
					{
						OFFSET 0.069299 -0.038670 0.119418
					}
				}
			}
		}
	}
	JOINT Pelvis_R_Hip
	{
		OFFSET 0.000000 0.000000 0.000000
		CHANNELS 3 Zrotation Yrotation Xrotation
		JOINT R_Hip
		{
			OFFSET -0.055334 -0.094904 -0.002373
			CHANNELS 3 Zrotation Yrotation Xrotation
			JOINT R_Knee
			{
				OFFSET -0.064207 -0.384370 -0.019592
				CHANNELS 3 Zrotation Yrotation Xrotation
				JOINT R_Ankle
				{
					OFFSET 0.025418 -0.419734 -0.065953
					CHANNELS 3 Zrotation Yrotation Xrotation
					End Site #name: R_Foot
					{
						OFFSET -0.057233 -0.039888 0.132134
					}
				}
			}
		}
	}
	JOINT Pelvis_Spine1
	{
		OFFSET 0.000000 0.000000 0.000000
		CHANNELS 3 Zrotation Yrotation Xrotation
		JOINT Spine1
		{
			OFFSET -0.005562 0.124093 -0.043360
			CHANNELS 3 Zrotation Yrotation Xrotation
			JOINT Spine2
			{
				OFFSET 0.012244 0.139499 0.029894
				CHANNELS 3 Zrotation Yrotation Xrotation
				JOINT Spine3
				{
					OFFSET -0.002556 0.056561 0.009225
					CHANNELS 3 Zrotation Yrotation Xrotation
					JOINT Spine3_Neck
					{
						OFFSET 0.000000 0.000000 0.000000
						CHANNELS 3 Zrotation Yrotation Xrotation
						JOINT Neck
						{
							OFFSET -0.005205 0.217920 -0.024551
							CHANNELS 3 Zrotation Yrotation Xrotation
							End Site #name: Head
							{
								OFFSET 0.002365 0.091850 0.046637
							}
						}
					}
					JOINT Spine3_L_Collar
					{
						OFFSET 0.000000 0.000000 0.000000
						CHANNELS 3 Zrotation Yrotation Xrotation
						JOINT L_Collar
						{
							OFFSET 0.072225 0.116603 -0.009480
							CHANNELS 3 Zrotation Yrotation Xrotation
							JOINT L_Shoulder
							{
								OFFSET 0.115937 -0.058643 -0.021018
								CHANNELS 3 Zrotation Yrotation Xrotation
								JOINT L_Elbow
								{
									OFFSET 0.021994 -0.254722 -0.024492
									CHANNELS 3 Zrotation Yrotation Xrotation
									End Site #name: L_Wrist
									{
										OFFSET 0.048810 -0.240214 0.103329
									}
								}
							}
						}
					}
					JOINT Spine3_R_Collar
					{
						OFFSET 0.000000 0.000000 0.000000
						CHANNELS 3 Zrotation Yrotation Xrotation
						JOINT R_Collar
						{
							OFFSET -0.073372 0.120704 -0.024611
							CHANNELS 3 Zrotation Yrotation Xrotation
							JOINT R_Shoulder
							{
								OFFSET -0.108089 -0.054969 -0.020504
								CHANNELS 3 Zrotation Yrotation Xrotation
								JOINT R_Elbow
								{
									OFFSET -0.033684 -0.260739 0.009889
									CHANNELS 3 Zrotation Yrotation Xrotation
									End Site #name: R_Wrist
									{
										OFFSET -0.067980 -0.232763 0.118463
									}
								}
							}
						}
					}
				}
			}
		}
	}
}
MOTION
Frames: 5
Frame Time: 0.041667
0.000000 0.966648 0.000000 -5.124153 -5.053313 -1.496771 0.000000 0.000000 0.000000 3.296790 0.347027 2.654784 3.950306 -0.417441 1.598047 -4.517270 -5.825421 4.493363 0.000000 0.000000 0.000000 0.689661 -0.014282 -0.130033 0.263958 0.261821 4.817925 6.979405 5.164748 10.621920 0.000000 0.000000 0.000000 6.674702 -1.047391 -2.592214 -2.599841 0.880208 6.519351 1.738241 2.936924 4.363127 0.000000 0.000000 0.000000 -8.881002 5.512992 11.365898 0.000000 0.000000 0.000000 14.488099 -4.138338 -0.021949 -22.805650 2.260529 -0.634855 0.728273 -0.438443 -3.804921 0.000000 0.000000 0.000000 -21.364045 13.128497 -5.652434 26.305569 -3.006648 10.366390 -2.300836 -1.585206 1.598968 
0.000732 0.966887 -0.001131 -5.175869 -5.114851 -1.177644 0.000000 0.000000 0.000000 3.268092 0.260251 2.251382 3.976495 -0.422065 1.628085 -4.490867 -5.647257 4.553901 0.000000 0.000000 0.000000 0.693286 0.011553 -0.284215 0.238975 0.233582 4.304461 7.171278 5.203364 10.949826 0.000000 0.000000 0.000000 6.324285 -0.924327 -3.021997 -2.267780 0.865600 7.345218 1.739986 2.896679 3.858772 0.000000 0.000000 0.000000 -9.184943 5.713545 11.433999 0.000000 0.000000 0.000000 14.622017 -4.277233 -0.109656 -21.506144 1.963453 -1.146012 0.218996 -0.524389 -3.057304 0.000000 0.000000 0.000000 -20.822584 13.123185 -5.668258 24.714403 -2.804523 10.167868 -2.293245 -1.466922 1.161078 
0.001764 0.967094 -0.002834 -5.263896 -5.128082 -0.833077 0.000000 0.000000 0.000000 3.254238 0.159953 1.794257 4.010822 -0.428301 1.674440 -4.455069 -5.494336 4.583316 0.000000 0.000000 0.000000 0.729917 0.046381 -0.499806 0.221031 0.209800 3.883298 7.319562 5.156546 11.260605 0.000000 0.000000 0.000000 5.942636 -0.817571 -3.310481 -1.926149 0.841151 8.121772 1.741857 2.821373 3.369901 0.000000 0.000000 0.000000 -9.457141 5.872487 11.276649 0.000000 0.000000 0.000000 14.775753 -4.629610 -0.341352 -19.616206 1.673459 -1.481402 -0.609802 -0.869514 -2.872578 0.000000 0.000000 0.000000 -20.510803 13.293378 -5.812189 22.479852 -2.574627 9.969705 -1.941875 -1.014417 0.113563 
0.002939 0.967188 -0.004779 -5.406172 -5.127812 -0.703222 0.000000 0.000000 0.000000 3.327271 0.063118 1.380208 3.989121 -0.443350 1.970228 -4.378391 -5.394658 4.512580 0.000000 0.000000 0.000000 0.822804 0.075534 -0.695274 0.237668 0.198123 3.750088 7.363436 5.035737 11.429952 0.000000 0.000000 0.000000 5.711876 -0.827907 -2.935012 -1.924524 0.848089 8.225597 1.791300 2.868328 3.179059 0.000000 0.000000 0.000000 -9.499557 5.871939 11.051547 0.000000 0.000000 0.000000 15.019113 -5.248213 -0.729219 -17.953190 1.374264 -2.025376 -0.031192 -0.554957 -2.644634 0.000000 0.000000 0.000000 -21.029438 13.949595 -6.318414 21.302332 -2.404419 9.683300 -1.645215 -0.428595 -1.480200 
0.004531 0.967329 -0.007116 -5.519358 -5.064394 -0.654007 0.000000 0.000000 0.000000 3.398838 -0.035192 0.954534 3.903140 -0.452996 2.290709 -4.352355 -5.352445 4.490212 0.000000 0.000000 0.000000 0.873123 0.118055 -0.952971 0.258525 0.196409 3.787701 7.354028 4.859327 11.547106 0.000000 0.000000 0.000000 5.474622 -0.885828 -2.175872 -2.172703 0.873653 7.763403 1.882081 3.053585 3.280520 0.000000 0.000000 0.000000 -9.288259 5.712269 10.928397 0.000000 0.000000 0.000000 15.483470 -5.912269 -1.106231 -16.673481 0.957627 -3.303695 1.799980 0.442634 -1.787734 0.000000 0.000000 0.000000 -22.131972 14.867878 -7.054604 21.094223 -2.265533 9.268012 -0.963196 0.703259 -4.175927 
